<?xml version="1.0" encoding="UTF-8"?>
<svg xmlns="http://www.w3.org/2000/svg" xmlns:xlink="http://www.w3.org/1999/xlink" viewBox="0 0 347.63 364.65">
  <defs>
    <style>
      .cls-1, .cls-2, .cls-3, .cls-4, .cls-5, .cls-6, .cls-7 {
        stroke-miterlimit: 10;
      }

      .cls-1, .cls-2, .cls-3, .cls-6, .cls-7 {
        stroke-width: 5px;
      }

      .cls-1, .cls-2, .cls-4, .cls-5, .cls-6, .cls-7 {
        stroke: #000;
      }

      .cls-2 {
        fill: none;
      }

      .cls-2, .cls-6 {
        stroke-linecap: round;
      }

      .cls-3 {
        stroke: #fff;
      }

      .cls-3, .cls-8, .cls-4, .cls-5 {
        fill: #fff;
      }

      .cls-5 {
        stroke-width: 2px;
      }

      .cls-6 {
        fill: url(#linear-gradient-2);
      }

      .cls-7 {
        fill: url(#linear-gradient);
      }
    </style>
    <linearGradient id="linear-gradient" x1="240.32" y1="14.31" x2="86.51" y2="453.51" gradientUnits="userSpaceOnUse">
      <stop offset="0" stop-color="#875de1"/>
      <stop offset=".04" stop-color="#714ebd"/>
      <stop offset=".12" stop-color="#3c2964"/>
      <stop offset=".21" stop-color="#000"/>
    </linearGradient>
    <linearGradient id="linear-gradient-2" x1="29.49" y1="233.57" x2="87.04" y2="66.89" gradientUnits="userSpaceOnUse">
      <stop offset="0" stop-color="#875de1"/>
      <stop offset=".1" stop-color="#6b49b2"/>
      <stop offset=".22" stop-color="#4e3683"/>
      <stop offset=".34" stop-color="#36255b"/>
      <stop offset=".46" stop-color="#22183a"/>
      <stop offset=".58" stop-color="#130d20"/>
      <stop offset=".71" stop-color="#08050e"/>
      <stop offset=".85" stop-color="#020103"/>
      <stop offset="1" stop-color="#000"/>
    </linearGradient>
  </defs>
  <g id="Layer_1" data-name="Layer 1">
    <g>
      <path class="cls-7" d="M329.97,186.91c-3.18-2.09-6.3-2.39-9.14-3.83-2.27-1.14-.83-2.58-.8-4.44.4-24.35,2.05-50.79.95-74.95-2.08-46-43.46-88.85-89.16-93.33-1.73-.17-17.33.34-18.01-.65-5.12-8.39-18.38-10.77-24.74,0-8.57.86-25.05.95-33.41,3.13-46.74,12.13-77.63,50.95-76.77,99.53.11,5.75,1.78,5.39-3.59,9.33-17.55,12.88-35.5,25.13-52.54,38.7-9.46,7.53-29.98,20.82-14.88,33.55,7.84,6.62,20.1,6.73,29.85,8.1,6.48.91,12.27,3.32,19.09.83.22,2.9-1.18,5.59-1.43,8.41-1.81,20.4,8.82,42.92,29.65,48.62,1.72.47,6.18.15,7.08,2.04.63,1.31.08,3.83.3,5.46,4.25,30.83,21.33,53.82,45.9,71.77,32.17,23.5,66.95,30.99,103.97,12.91,27.79-13.57,54.2-37.92,62.59-68.52,2.02-7.38,3.26-14.95,4.13-22.53,15.15-.55,29.21-14.53,33.8-28.39,5.25-15.86,1.87-36.05-12.84-45.74ZM269.28,130.3c8.29-.73,16.55-4.16,24.79-5.22.12.96-.81,1.59-1.44,2.16-7.41,6.86-24.12,14.79-33.98,16.93-11.09,2.39-26.26.68-37.21-2.41-8.86-2.51-23.64-10.25-31.89-10.86-.89-.06-3.74-.47-3.5,1.09,5.13,8.99,13.03,15.82,21.57,21.43.12.63-.18.51-.71.48-11.23-.78-37.04-19.27-44.68-27.86-1.6-1.8-6.39-7.59-7.36-9.44-.31-.58-.62-1.11-.58-1.8.08-.53,3.9-1.13,4.65-1.19,4.77-.37,14.45,1.16,19.5,1.99,10.35,1.7,17.84,5.58,28.49,3.74,6.46-1.12,11.7,2.86,17.29,4.75,13.83,4.65,30.41,7.49,45.06,6.21ZM76.05,237.2c-11.57-13.56-9.25-40.3,12.47-40.09l2.88,49.95c-5.51-.51-11.81-5.71-15.35-9.86ZM95,168.29c-1.67,1.1-3.32,2.41-3.62-.21-.94-8.1-.58-25.24,0-33.66.11-1.58.45-4.31.99-5.73,1.19-3.14,11.41-10.46,15.36-9.38-.08,2.8.11,5.63.02,8.43-.37,12.45-1.03,32.85-12.75,40.55ZM298.4,195.44c-1.83,32.08-.57,84.03-20.46,110.17-18.3,24.05-50.56,43.42-81.6,41.34-33.88-2.28-76.03-32.19-86.07-65.21-8.14-26.77-6.42-65.67-7.8-94.01-.08-1.62-.67-3.14-.87-4.73.19-1.06,4.82-2.53,6.1-3.44,10.16-7.22,14.73-22.65,15.42-34.53.27-4.61-.52-9.98-.04-14.45.08-.7.1-1.22.74-1.66,4.04,7.23,8.94,14.18,14.37,20.45,9.01,10.38,28.38,25.21,42.29,27.11.64.09,3.57.39,3.13-.73-4.81-6.6-10.23-13.56-11.52-21.86l11.68,7.77c13.32,7.2,38.53,13.52,53.01,8.18,2.26-.83,3.23-2.82,4.44-3.25,2.85-1.01,7.96-.73,11.24-1.24,7.98-1.23,14.44-3.26,21.76-6.57,1.29-.58,8.84-4.87,9.28-4.41,1.16,12.02.68,21.76,11.57,29.02.92.62,3.25,1.39,3.68,1.84,1.28,1.33-.23,8.09-.35,10.21ZM321.65,240.54c-2.07,1.96-3.65,3.27-6.28,4.53-1.03.5-5.51,2.63-5.89,1.21l4.11-50.09c3.83.45,7.15,1.73,10.03,4.27,12.07,10.69,8.9,29.77-1.97,40.08Z"/>
      <path class="cls-3" d="M298.75,185.23c-.43-.45-2.76-1.22-3.68-1.84-10.89-7.26-10.41-17-11.57-29.02-.44-.46-7.99,3.83-9.28,4.41-7.32,3.31-13.78,5.34-21.76,6.57-3.28.51-8.39.23-11.24,1.24-1.21.43-2.18,2.42-4.44,3.25-14.48,5.34-39.69-.98-53.01-8.18l-11.68-7.77c1.29,8.3,6.71,15.26,11.52,21.86.44,1.12-2.49.82-3.13.73-13.91-1.9-33.28-16.73-42.29-27.11-5.43-6.27-10.33-13.22-14.37-20.45-.64.44-.66.96-.74,1.66-.48,4.47.31,9.84.04,14.45-.69,11.88-5.26,27.31-15.42,34.53-1.28.91-5.91,2.38-6.1,3.44.2,1.59.79,3.11.87,4.73,1.38,28.34-.34,67.24,7.8,94.01,10.04,33.02,52.19,62.93,86.07,65.21,31.04,2.08,63.3-17.29,81.6-41.34,19.89-26.14,18.63-78.09,20.46-110.17.12-2.12,1.63-8.88.35-10.21ZM135.49,179.01c8.35-.78,31.24-.84,38.11,3.39.91.56,2.48,1.85,3.03,2.73,2.12,3.41-.31,10.36-4.33,11-4.6.73-12.24-1.2-17.24-1.44-9.74-.46-19.47.78-29.2.39-1.67-.43-3.56-3.07-3.97-4.67-2.13-8.3,7.28-10.81,13.6-11.4ZM164.29,218.38c-2.59,7.04-8.82,11.02-16.32,8.86-12.73-3.67-9.71-24.62,1.91-26.16,5.61-.74,10.13,2.31,13,6.93,2.42,3.91,3.04,5.96,1.41,10.37ZM217.4,304.37c-.26.95-.85,1.82-1.63,2.47.94,1.88.68,4.25-.87,5.8-1.89,1.89-5.18,1.93-7.07,0-1-1.02-1.89-2.13-2.87-3.17-.26-.27-.54-.52-.81-.79-.04-.04-.06-.06-.08-.09-.3-.21-.61-.39-.93-.56-.11-.05-.29-.14-.38-.18-4.04-1.46-4.98-6.72-1.19-9.14,1.98-1.27,4.2-2.16,6.59-2.06,2.06.09,3.85.9,5.76,1.56,2.56.88,4.25,3.41,3.49,6.15ZM258.37,292.29c-14.85,6.47-35.22,5.55-48.69-3.82-3.37-2.33-5.77-5.41-9.03-7.82-1.02.01-2.43,2.97-3.35,3.87-21.89,21.41-71.09,13.19-75.59-19.98-.07-.52-.5-3.07.66-2.59,3.2,3.25,8.72,7.41,13.21,8.41,19.21,4.25,23.71-14.46,37.85-21.24,7.2-3.45,15.56-2.75,22.25,1.48,1.4.89,4.72,4.38,6.1,3.57,4.74-7.07,16.08-8.61,23.72-6.01,17.45,5.93,23.27,32.97,46.62,19.94l7.54-5.19c.62,12.97-10.03,24.48-21.29,29.38ZM247.86,201.07c5.92-.63,11.22,3.51,13.74,8.59,5.6,11.27-7.8,23.39-18.6,16.19-9.12-6.09-5.45-23.69,4.86-24.78ZM276.8,194.01c-3.47,2.44-12.2.36-16.57.2-10.01-.35-19.83,1.08-29.77,1.91-5.83-.93-8.49-9.65-3.59-13.14,4.67-3.34,14.62-3.09,20.37-3.64,8.9-.84,22.13-3.94,29.38,2.57,4.07,3.66,5.13,8.62.18,12.1Z"/>
      <path class="cls-5" d="M294.07,125.08c.12.96-.81,1.59-1.44,2.16-7.41,6.86-24.12,14.79-33.98,16.93-11.09,2.39-26.26.68-37.21-2.41-8.86-2.51-23.64-10.25-31.89-10.86-.89-.06-3.74-.47-3.5,1.09,5.13,8.99,13.03,15.82,21.57,21.43.12.63-.18.51-.71.48-11.23-.78-37.04-19.27-44.68-27.86-1.6-1.8-6.39-7.59-7.36-9.44-.31-.58-.62-1.11-.58-1.8.08-.53,3.9-1.13,4.65-1.19,4.77-.37,14.45,1.16,19.5,1.99,10.35,1.7,17.84,5.58,28.49,3.74,6.46-1.12,11.7,2.86,17.29,4.75,13.83,4.65,30.41,7.49,45.06,6.21,8.29-.73,16.55-4.16,24.79-5.22Z"/>
      <path class="cls-5" d="M253.57,62.2c-11.86-6.87-51.13-4.94-66.11-4.78-7.06.08-14.27-.3-21.39,1.37-5.38,1.27-6.61,4.02-8.33,8.93-2.66,7.54-2.93,17.1-.69,24.72,33.28,2.66,67.49,2.86,102.62.67l1.21-.55.33-1.57c-1.82-6.78-.95-24.93-7.64-28.81ZM171.32,81.32c-.71-3.4-1.41-7.45-.19-10.72,1.04-1.32,7.87-1.26,9.06-.31,2.84,7.42.35,15.61-8.87,11.03ZM196.94,82.54c-2.9,1.71-6.23-.09-9-1.19-.31-2.05-.3-9.73,1.26-10.86,1.34-.98,7.29-.56,8.36.63,1.34,1.5.8,9.97-.62,11.42ZM218,82.94c-9.49,5.67-12.66-11.55-7.54-13.08,1.1-.33,5.42-.32,6.53,0,3.71,1.09,4.25,11.14,1,13.08ZM238.71,84.58c-7.45.12-9.38-3.94-8.29-10.8.72-4.57,9.5-5.21,11.51-2.66,2.32,2.94,2.23,13.38-3.22,13.45Z"/>
      <path class="cls-4" d="M91.4,247.06c-5.51-.51-11.81-5.71-15.35-9.86-11.57-13.56-9.25-40.3,12.47-40.09l2.88,49.95Z"/>
      <path class="cls-4" d="M321.65,240.54c-2.07,1.96-3.65,3.27-6.28,4.53-1.03.5-5.51,2.63-5.89,1.21l4.11-50.09c3.83.45,7.15,1.73,10.03,4.27,12.07,10.69,8.9,29.77-1.97,40.08Z"/>
      <path class="cls-1" d="M258.37,292.29c-14.85,6.47-35.22,5.55-48.69-3.82-3.37-2.33-5.77-5.41-9.03-7.82-1.02.01-2.43,2.97-3.35,3.87-21.89,21.41-71.09,13.19-75.59-19.98-.07-.52-.5-3.07.66-2.59,3.2,3.25,8.72,7.41,13.21,8.41,19.21,4.25,23.71-14.46,37.85-21.24,7.2-3.45,15.56-2.75,22.25,1.48,1.4.89,4.72,4.38,6.1,3.57,4.74-7.07,16.08-8.61,23.72-6.01,17.45,5.93,23.27,32.97,46.62,19.94l7.54-5.19c.62,12.97-10.03,24.48-21.29,29.38Z"/>
      <path class="cls-1" d="M172.3,196.13c-4.6.73-12.24-1.2-17.24-1.44-9.74-.46-19.47.78-29.2.39-1.67-.43-3.56-3.07-3.97-4.67-2.13-8.3,7.28-10.81,13.6-11.4,8.35-.78,31.24-.84,38.11,3.39.91.56,2.48,1.85,3.03,2.73,2.12,3.41-.31,10.36-4.33,11Z"/>
      <path class="cls-1" d="M276.8,194.01c-3.47,2.44-12.2.36-16.57.2-10.01-.35-19.83,1.08-29.77,1.91-5.83-.93-8.49-9.65-3.59-13.14,4.67-3.34,14.62-3.09,20.37-3.64,8.9-.84,22.13-3.94,29.38,2.57,4.07,3.66,5.13,8.62.18,12.1Z"/>
      <path class="cls-1" d="M164.29,218.38c-2.59,7.04-8.82,11.02-16.32,8.86-12.73-3.67-9.71-24.62,1.91-26.16,5.61-.74,10.13,2.31,13,6.93,2.42,3.91,3.04,5.96,1.41,10.37Z"/>
      <path class="cls-1" d="M243,225.85c-9.12-6.09-5.45-23.69,4.86-24.78,5.92-.63,11.22,3.51,13.74,8.59,5.6,11.27-7.8,23.39-18.6,16.19Z"/>
    </g>
  </g>
  <g id="Layer_2" data-name="Layer 2">
    <path class="cls-8" d="M154.19,208.41c1.93,0,1.93-3,0-3s-1.93,3,0,3h0Z"/>
    <path class="cls-8" d="M253.97,206.79c1.93,0,1.93-3,0-3s-1.93,3,0,3h0Z"/>
    <path class="cls-8" d="M150.96,215.72c5.79,0,5.8-9,0-9s-5.8,9,0,9h0Z"/>
    <path class="cls-8" d="M251.27,214.64c5.79,0,5.8-9,0-9s-5.8,9,0,9h0Z"/>
    <path d="M309.87,225.24l-.05,4.72c-.02,1.97,1.41,3.82,3.3,4.34,2.06.57,3.89-.44,5.08-2.07,2.98-4.06,2.15-10.14-1.41-13.55-1.31-1.25-3.25-1.66-4.92-.93-1.79.79-2.53,2.24-2.77,4.11-.33,2.6.04,5.33,1.05,7.75.94,2.24,2.98,3.85,5.54,3.14,2.11-.58,4.09-3.28,3.14-5.54-.81-1.94-1-3.26-.73-5.36l-7.68,3.18c.36.39.4.4.14.04.16.23.3.47.43.73-.43-.9.06,1.29.02.18.02.28.01.57,0,.85.07-.49.05-.48-.07.05-.17.5-.18.54-.04.09-.14.25-.3.48-.47.7l8.39,2.27.05-4.72c.03-2.43-2.09-4.5-4.5-4.5s-4.47,2.06-4.5,4.5h0Z"/>
    <path d="M87.8,218.26c-3.79,1.72-6.32,5.92-6.07,10.07.27,4.6,3.36,8.06,7.55,9.61,2.28.85,4.93-.94,5.54-3.14.69-2.52-.86-4.69-3.14-5.54-2.11-.78-.48-2.71.67-3.23,2.21-1,2.75-4.21,1.61-6.16-1.33-2.28-3.94-2.62-6.16-1.61h0Z"/>
    <path d="M194,307.73c2.68-.92,5.47-1.86,8.34-1.79.64.02,1.26.09,1.88.24.35.08,1.53.29,1.74.66.16.28-.19.78-.34,1.1-.36.73-.73,1.46-1.09,2.2-.47.95-2.39,5.23-3.98,3.67-.38-.37-.62-.91-.86-1.38-.36-.69-.71-1.39-1.07-2.08-.76-1.49-1.52-2.98-2.27-4.47-.64-1.26-2.32-.75-2.74.36-1.51,3.93.32,8.81,3.98,10.86,1.03.57,2.26,1,3.43.61,1.29-.43,1.75-1.67,2.02-2.88.49-2.18,1.5-5.56-.87-7.07-1.96-1.25-5.28.22-4.53,2.81.38,1.31,2.67,1.54,2.89,0,.34-2.28,3.07-3.9,5.17-2.72l-.3-2.36c-1.88,2.05-3.31,4.35-4.37,6.91-.66,1.61,1.89,2.57,2.74,1.16,1.23-2.05.86-4.65-.56-6.5-1.55-2-4.06-2.85-6.5-3.08-1.93-.18-4.28.26-5.62,1.78-1.76,1.99-1.07,4.63.58,6.43.89.97,2.06,1.61,3.07,2.43.42.34.95.77,1.17,1.26.04.09.06.33.09.39-.04-.07.52-.34.05-.14l1.82.23c-2.06-1.79-3.65-4.07-4.49-6.68-.21-.64-.39-1.3-.5-1.97-.07-.41-.17-.63.17-.82.48-.27,1.34-.18,1.85-.21.89-.05,1.79-.09,2.68-.11,1.74-.05,3.47-.04,5.21.02.84.03,1.68.07,2.52.12.37.02,1.33-.05,1.64.26.28.29.25,1.03.25,1.4,0,.6-.06,1.16-.21,1.74-.29,1.11-.82,2.16-1.55,3.05-1.72,2.11-4.29,3.33-7.03,3.02-.81-.09-1.5.76-1.5,1.5,0,.89.69,1.41,1.5,1.5,3.29.38,6.62-1.13,8.83-3.53s3.75-6.16,2.66-9.39c-.71-2.1-2.63-2.42-4.59-2.54-2.18-.14-4.36-.19-6.55-.16-2.02.03-4.19-.05-6.17.36-2.11.44-2.97,2.19-2.67,4.21.61,3.97,2.82,7.73,5.83,10.36.56.49,1.16.52,1.82.23,1.18-.51,1.55-1.87,1.37-3.04s-.98-2.22-1.88-3c-1-.88-5.06-2.94-3.86-4.77.4-.62,1.35-.84,2.03-.92,1.11-.13,2.28.07,3.34.42,1.84.61,3.82,2.63,2.61,4.65l2.74,1.16c.85-2.06,2.09-3.95,3.59-5.59.64-.7.57-1.87-.3-2.36-3.64-2.04-8.95.27-9.57,4.52h2.89c.05.17-.27.57-.27.57-.02-.07.31-.05.38-.03-.24-.08-.13-.27-.06.08.02.13.07.25.09.38.05.35,0,.73-.06,1.07-.15.95-.41,1.9-.62,2.84-.08.34.06.18-.17.15-.32-.05-.65-.27-.91-.43-2.46-1.49-3.42-4.73-2.41-7.36l-2.74.36c.73,1.44,1.46,2.88,2.2,4.32.66,1.29,1.24,2.71,2.15,3.84,1.87,2.33,4.83,1.79,6.69-.22.93-1,1.57-2.17,2.18-3.38.67-1.34,1.6-2.75,1.96-4.21.86-3.47-3.43-4.57-6.02-4.76-3.31-.25-6.62.81-9.71,1.87-1.81.62-1.03,3.52.8,2.89h0Z"/>
    <path d="M201.64,307.88c-.32-1.29-1.62-2.08-2.91-1.96s-2.57.88-3.02,2.2c-.11.33-.16.72-.14,1.07s.07.76.2,1.1c.28.72.69,1.38,1.28,1.88,1.17,1.01,2.9,1.76,4.42,1.11.56-.24,1.01-.64,1.25-1.21.2-.48.24-1.04.07-1.54-.19-.53-.51-1.01-1-1.3-.62-.37-1.34-.34-1.96,0-.69.37-.97,1.39-.54,2.05.45.71,1.31.93,2.05.54l.04-.02-.36.15s.08-.03.12-.04l-.4.05s.07,0,.11,0l-.4-.05s.07.02.11.03l-.36-.15s.09.05.13.08l-.3-.23s.08.08.12.12l-.23-.3c.04.06.08.12.11.19l-.15-.36c.03.09.06.17.07.26l-.05-.4c0,.06,0,.12,0,.18l.05-.4c0,.06-.02.11-.04.17l.15-.36s-.04.08-.06.12l.23-.3c-.05.06-.1.11-.15.16l.3-.23c-.08.06-.15.1-.24.14l.36-.15c-.11.04-.21.07-.33.09l.4-.05c-.2.03-.39.02-.59,0l.4.05c-.28-.04-.55-.13-.81-.24l.36.15c-.32-.14-.63-.32-.91-.53l.3.23c-.24-.19-.46-.41-.65-.65l.23.3c-.14-.19-.26-.39-.36-.61l.15.36c-.08-.2-.14-.4-.17-.61l.05.4c-.02-.18-.02-.35,0-.53l-.05.4c.02-.14.05-.27.1-.39l-.15.36c.05-.11.11-.21.18-.31l-.23.3c.08-.11.18-.2.28-.29l-.3.23c.14-.11.3-.2.46-.27l-.36.15c.18-.07.36-.12.56-.15l-.4.05c.17-.02.34-.02.52,0l-.4-.05c.13.02.25.05.36.1l-.36-.15c.1.04.19.1.28.16l-.3-.23c.07.05.12.11.18.18l-.23-.3c.05.07.1.15.13.23l-.15-.36c.03.06.05.13.06.19.19.76,1.09,1.29,1.85,1.05s1.25-1.03,1.05-1.85h0Z"/>
    <path class="cls-2" d="M189.07,9.71c5.82,0,22.16.04,27.15.6"/>
    <path class="cls-6" d="M82.33,126.17c-23.33,13.63-46.97,31.57-70.9,53.49-2.67,2.02-3.32,5.79-1.41,8.54,1.04,1.5,2.46,3.09,4.21,4.75.61.58,1.39.96,2.22,1.12,9.83,3.91,24.97,5.76,38.51,6.9,6.41-10.99,15.61-19.46,31.23-22.11l-3.86-52.69Z"/>
  </g>
</svg>